# xmcd
#
# Track frame offsets:
#	150
#	14272
#	35065
#	49700
#	86165
#	97617
#	125125
#	148980
#	172900
#	194797
#
# Disc length: 2885 seconds
#
# Revision: 5
# Processed by: cddbd v1.5.2PL0 Copyright (c) Steve Scherf et al.
# Submitted via: EZCDAudioConverter 7.1.0.1
#
DISCID=8c0b430a
DTITLE=Gypsy
DYEAR=1971
DGENRE=blues
TTITLE0=What Makes A Man A Man
TTITLE1=Keep On Trying
TTITLE2=I Don't Care, Do You Mind?
TTITLE3=Turning Wheel
TTITLE4=Feel About The Country Fine
TTITLE5=Standing Alone, Feel So Bad
TTITLE6=I Want To Be Beside You
TTITLE7=Please Don't Stay
TTITLE8=Let Me Take You Home
TTITLE9=Pony Ride
EXTD=
EXTT0=
EXTT1=
EXTT2=
EXTT3=
EXTT4=
EXTT5=
EXTT6=
EXTT7=
EXTT8=
EXTT9=
PLAYORDER=
